<svg xmlns="http://www.w3.org/2000/svg" viewBox="0 0 500 500"><g id="freepik--Device--inject-21"><path d="M339.7,461.65,204.25,461a29.51,29.51,0,0,1-29.37-29.64L176.31,91.8A29.52,29.52,0,0,1,206,62.41L341.41,63a29.51,29.51,0,0,1,29.37,29.63l-1.43,339.6A29.5,29.5,0,0,1,339.7,461.65Z" style="fill:#263238"></path><path d="M341.22,74.76,315,74.64l-76.71-.36-9.23,0-23-.1a20.66,20.66,0,0,0-20.76,20.57l-1.4,331.48a20.66,20.66,0,0,0,20.57,20.75l135.19.62A20.66,20.66,0,0,0,360.39,427l1.4-331.48A20.66,20.66,0,0,0,341.22,74.76Z" style="fill:#fafafa"></path><path d="M342.22,104.88a1.69,1.69,0,1,1-1.68-1.69A1.69,1.69,0,0,1,342.22,104.88Z" style="fill:#263238"></path><path d="M342.2,111a1.69,1.69,0,1,1-1.69-1.7A1.7,1.7,0,0,1,342.2,111Z" style="fill:#263238"></path><path d="M342.18,117.05a1.7,1.7,0,1,1-1.69-1.69A1.7,1.7,0,0,1,342.18,117.05Z" style="fill:#263238"></path><rect x="208.37" y="162.65" width="144.1" height="91.42" rx="4.3" style="fill:#ebebeb"></rect><rect x="204.41" y="156.71" width="144.1" height="91.42" rx="4.3" style="fill:#e0e0e0"></rect><rect x="199.84" y="151.78" width="144.1" height="91.42" rx="4.3" style="fill:#FF725E"></rect><path d="M223.57,172.66c0,1.17-.93,1.85-2.71,1.85h-3.49v-6.77h3.3c1.69,0,2.56.71,2.56,1.76a1.63,1.63,0,0,1-.9,1.49A1.66,1.66,0,0,1,223.57,172.66Zm-4.65-3.74v1.6h1.56c.76,0,1.18-.27,1.18-.8s-.42-.8-1.18-.8ZM222,172.5c0-.57-.44-.84-1.25-.84h-1.83v1.67h1.83C221.56,173.33,222,173.08,222,172.5Z" style="fill:#fff"></path><path d="M229.21,173.06h-3.14l-.6,1.45h-1.61l3-6.77h1.55l3,6.77h-1.64Zm-.49-1.19-1.08-2.59-1.07,2.59Z" style="fill:#fff"></path><path d="M238.36,167.74v6.77h-1.29l-3.37-4.11v4.11h-1.55v-6.77h1.3l3.36,4.11v-4.11Z" style="fill:#fff"></path><path d="M242.42,171.85l-.91,1v1.71H240v-6.77h1.56v3.16l3-3.16h1.74l-2.8,3,3,3.75h-1.83Z" style="fill:#fff"></path><path d="M222.3,200.79h-1.24v1.63h-.64v-1.63h-3.5v-.46l3.29-4.12h.71l-3.17,4h2.69v-1.43h.62v1.43h1.24Z" style="fill:#fff"></path><path d="M226.86,200.64c0,1-.75,1.84-2.25,1.84a3.23,3.23,0,0,1-2.24-.8l.32-.51a2.69,2.69,0,0,0,1.92.72c1,0,1.6-.48,1.6-1.25s-.53-1.23-1.68-1.23h-.44v-.47l1.72-2.16h-3.18v-.57h4v.46l-1.75,2.21C226.2,199,226.86,199.65,226.86,200.64Z" style="fill:#fff"></path><path d="M231.88,200.6c0,1.05-.73,1.88-2.25,1.88a3.22,3.22,0,0,1-2.23-.8l.32-.51a2.64,2.64,0,0,0,1.9.72c1.06,0,1.62-.51,1.62-1.27s-.5-1.29-2.08-1.29h-1.32l.32-3.12h3.4v.57h-2.84l-.22,2h.8C231.17,198.76,231.88,199.5,231.88,200.6Z" style="fill:#fff"></path><path d="M237.36,200.57a1.94,1.94,0,0,1-2.12,1.91c-1.65,0-2.55-1.15-2.55-3.11,0-2.11,1.15-3.21,2.84-3.21a2.83,2.83,0,0,1,1.47.34l-.26.51a2.16,2.16,0,0,0-1.2-.29c-1.34,0-2.2.86-2.2,2.55,0,.14,0,.31,0,.5a2,2,0,0,1,1.9-1.06A1.88,1.88,0,0,1,237.36,200.57Zm-.63,0c0-.82-.61-1.34-1.56-1.34a1.44,1.44,0,0,0-1.6,1.35c0,.69.57,1.34,1.64,1.34A1.36,1.36,0,0,0,236.73,200.59Z" style="fill:#fff"></path><path d="M250.77,202.42l-1.48-1.95-1.49,1.95h-.71l1.85-2.39-1.76-2.27h.71l1.4,1.82,1.4-1.82h.7L249.63,200l1.86,2.39Z" style="fill:#fff"></path><path d="M255.51,202.42,254,200.47l-1.49,1.95h-.71l1.85-2.39-1.76-2.27h.71l1.4,1.82,1.4-1.82h.69L254.37,200l1.86,2.39Z" style="fill:#fff"></path><path d="M260.25,202.42l-1.48-1.95-1.49,1.95h-.71l1.84-2.39-1.76-2.27h.71l1.41,1.82,1.4-1.82h.69L259.1,200l1.87,2.39Z" style="fill:#fff"></path><path d="M265,202.42l-1.48-1.95L262,202.42h-.71l1.85-2.39-1.76-2.27h.71l1.4,1.82,1.4-1.82h.7L263.84,200l1.86,2.39Z" style="fill:#fff"></path><path d="M281.34,202.42l-1.48-1.95-1.49,1.95h-.71L279.5,200l-1.75-2.27h.71l1.4,1.82,1.4-1.82H282L280.19,200l1.87,2.39Z" style="fill:#fff"></path><path d="M286.07,202.42l-1.48-1.95-1.49,1.95h-.71l1.85-2.39-1.76-2.27h.71l1.4,1.82,1.4-1.82h.7L284.93,200l1.86,2.39Z" style="fill:#fff"></path><path d="M290.81,202.42l-1.48-1.95-1.49,1.95h-.71L289,200l-1.76-2.27h.71l1.4,1.82,1.4-1.82h.69L289.67,200l1.86,2.39Z" style="fill:#fff"></path><path d="M295.55,202.42l-1.48-1.95-1.49,1.95h-.71l1.84-2.39L292,197.76h.71l1.41,1.82,1.4-1.82h.69L294.4,200l1.87,2.39Z" style="fill:#fff"></path><path d="M310.24,196.21v6.21h-.64v-5.64h-1.47v-.57Z" style="fill:#fff"></path><path d="M315.82,200.64c0,1-.75,1.84-2.25,1.84a3.23,3.23,0,0,1-2.24-.8l.32-.51a2.67,2.67,0,0,0,1.92.72c1,0,1.6-.48,1.6-1.25s-.53-1.23-1.68-1.23h-.44v-.47l1.72-2.16h-3.18v-.57h4v.46l-1.75,2.21C315.16,199,315.82,199.65,315.82,200.64Z" style="fill:#fff"></path><path d="M322,200.79h-1.25v1.63h-.63v-1.63h-3.51v-.46l3.29-4.12h.71l-3.17,4h2.69v-1.43h.62v1.43H322Z" style="fill:#fff"></path><path d="M326.79,201.86v.56h-4.36V202l2.58-2.53c.7-.69.84-1.11.84-1.53,0-.72-.51-1.16-1.46-1.16a2.08,2.08,0,0,0-1.69.69l-.46-.39a2.8,2.8,0,0,1,2.2-.89c1.26,0,2.06.64,2.06,1.68a2.54,2.54,0,0,1-1,1.94l-2.11,2.08Z" style="fill:#fff"></path><path d="M213.73,215.31a1.52,1.52,0,0,1,1.61-1.53,1.54,1.54,0,0,1,1.21.52l-.44.41a.94.94,0,0,0-.74-.35.95.95,0,1,0,0,1.9.94.94,0,0,0,.74-.35l.44.4a1.49,1.49,0,0,1-1.22.53A1.52,1.52,0,0,1,213.73,215.31Z" style="fill:#fff"></path><path d="M218.91,216.16h-1.37l-.27.63h-.7l1.32-3h.68l1.32,3h-.71Zm-.21-.52-.47-1.14-.47,1.14Z" style="fill:#fff"></path><path d="M222.1,216.79l-.58-.82h-.63v.82h-.68v-3h1.28c.79,0,1.29.41,1.29,1.07a1,1,0,0,1-.61.94l.66.95Zm-.65-2.4h-.56v1h.56c.42,0,.63-.19.63-.52S221.87,214.39,221.45,214.39Z" style="fill:#fff"></path><path d="M223.09,216.5l.23-.52a1.7,1.7,0,0,0,1,.31c.41,0,.57-.13.57-.31,0-.56-1.72-.18-1.72-1.28,0-.5.41-.92,1.25-.92a2,2,0,0,1,1,.26l-.21.52a1.76,1.76,0,0,0-.82-.23c-.41,0-.57.15-.57.34,0,.54,1.73.17,1.73,1.25,0,.5-.42.92-1.26.92A2.14,2.14,0,0,1,223.09,216.5Z" style="fill:#fff"></path><path d="M230,213.83v3h-.69v-1.21h-1.35v1.21h-.68v-3h.68V215h1.35v-1.17Z" style="fill:#fff"></path><path d="M230.47,215.31a1.62,1.62,0,1,1,1.62,1.53A1.53,1.53,0,0,1,230.47,215.31Zm2.55,0a.93.93,0,1,0-.93.95A.91.91,0,0,0,233,215.31Z" style="fill:#fff"></path><path d="M234.23,213.83h.69v2.4h1.48v.56h-2.17Z" style="fill:#fff"></path><path d="M236.79,213.83h1.35a1.49,1.49,0,1,1,0,3h-1.35Zm1.32,2.4a.92.92,0,1,0,0-1.84h-.63v1.84Z" style="fill:#fff"></path><path d="M242.59,216.24v.55H240.3v-3h2.23v.55H241V215h1.37v.54H241v.68Z" style="fill:#fff"></path><path d="M245,216.79l-.58-.82h-.63v.82h-.68v-3h1.28c.79,0,1.29.41,1.29,1.07a1,1,0,0,1-.61.94l.66.95Zm-.65-2.4h-.56v1h.56c.42,0,.63-.19.63-.52S244.8,214.39,244.38,214.39Z" style="fill:#fff"></path><rect x="213.05" y="224.16" width="43.95" height="3.8" rx="1.59" style="fill:#fff"></rect><rect x="305.23" y="224.16" width="24.42" height="3.8" rx="1.59" style="fill:#fff"></rect><g style="opacity:0.2"><path d="M339.17,151.78H204.62a4.78,4.78,0,0,0-4.78,4.77v24.14c8.5,5.93,20.18,7,30.54,4.81,12.21-2.55,23.27-8.8,34.64-13.92s23.88-9.22,36.17-7.11c11.61,2,21.5,9.21,32,14.56a62.07,62.07,0,0,0,10.76,4.34V156.55A4.78,4.78,0,0,0,339.17,151.78Z" style="fill:#fff"></path></g><rect x="202.85" y="278.82" width="37.41" height="37.41" rx="8.78" style="fill:#FF725E"></rect><path d="M225.25,303.25h-8.18a.47.47,0,0,1-.46-.37l-3-12h-2.84a.49.49,0,0,1,0-1H214a.49.49,0,0,1,.47.37l3,12h7.8a.49.49,0,0,1,0,1Z" style="fill:#fff"></path><circle cx="218.62" cy="305.56" r="1.53" style="fill:#FF725E"></circle><path d="M218.62,307.57a2,2,0,1,1,2-2A2,2,0,0,1,218.62,307.57Zm0-3.06a1,1,0,1,0,1,1.05A1.06,1.06,0,0,0,218.62,304.51Z" style="fill:#fff"></path><circle cx="227.13" cy="305.56" r="1.53" style="fill:#FF725E"></circle><path d="M227.13,307.57a2,2,0,1,1,2-2A2,2,0,0,1,227.13,307.57Zm0-3.06a1,1,0,1,0,1.05,1.05A1,1,0,0,0,227.13,304.51Z" style="fill:#fff"></path><path d="M228.44,301H216.8a.48.48,0,0,1-.49-.48.49.49,0,0,1,.49-.48H228l1.28-7.21H214.63a.48.48,0,1,1,0-1H229.9a.5.5,0,0,1,.37.17.47.47,0,0,1,.1.4l-1.45,8.17A.48.48,0,0,1,228.44,301Z" style="fill:#fff"></path><rect x="252.67" y="285.39" width="75.89" height="9.03" rx="3.77" style="fill:#e0e0e0"></rect><rect x="252.67" y="303.14" width="38.36" height="9.03" rx="3.77" style="fill:#e0e0e0"></rect><path d="M360.09,264.73c0,.14-39.49.26-88.19.26s-88.21-.12-88.21-.26,39.49-.26,88.21-.26S360.09,264.59,360.09,264.73Z" style="fill:#e0e0e0"></path><rect x="215.31" y="331.22" width="115.04" height="38.79" rx="16.21" style="fill:#FF725E"></rect><path d="M270.56,348.78c0,2-1.46,3.16-3.8,3.16h-1.5v2.24h-2.42v-8.57h3.92C269.1,345.61,270.56,346.83,270.56,348.78Zm-2.44,0c0-.79-.51-1.26-1.51-1.26h-1.35V350h1.35C267.61,350,268.12,349.57,268.12,348.78Z" style="fill:#fff"></path><path d="M277.05,352.52h-3.62l-.68,1.66h-2.47l3.78-8.57h2.39l3.79,8.57h-2.52Zm-.71-1.79-1.1-2.74-1.1,2.74Z" style="fill:#fff"></path><path d="M285,351.11v3.07h-2.42v-3.11l-3.27-5.46h2.56l2,3.41,2-3.41h2.35Z" style="fill:#fff"></path><circle cx="205.14" cy="113.69" r="7.47" transform="translate(47.23 287.1) rotate(-76.67)" style="fill:#FF725E"></circle><rect x="243.92" y="109.85" width="55.94" height="6.55" rx="2.74" style="fill:#e0e0e0"></rect><rect x="221.39" y="381.2" width="114.19" height="7.63" style="fill:#263238"></rect><path d="M226.8,385c1,.34,14.38.34,14.38,26.75s-.67,59.18,13.37,60.18,87.93,0,87.93,0V405.65a20.09,20.09,0,0,0-20-20.09Z" style="fill:#fafafa"></path><path d="M226.8,385l55.54.17,28.18.1,7.72,0a44.94,44.94,0,0,1,8,.39A20.1,20.1,0,0,1,339.66,395a20.16,20.16,0,0,1,2.89,8.16,36.14,36.14,0,0,1,.18,4.41V412c0,5.94,0,12,0,18.2v42h-.26c-25.84.31-50.41.54-72.75.36-2.79,0-5.54-.07-8.26-.12s-5.39-.07-8.07-.44a9,9,0,0,1-3.62-1.7,13.25,13.25,0,0,1-2.6-2.95,26.44,26.44,0,0,1-3-7,77.27,77.27,0,0,1-2.38-14.17c-.41-4.58-.59-9-.69-13.21-.22-8.43,0-16.05-.15-22.73s-1.16-12.43-3.22-16.65a18.21,18.21,0,0,0-3.58-5.05,13.59,13.59,0,0,0-3.77-2.51,18.51,18.51,0,0,0-3.61-1l.95.15a12.34,12.34,0,0,1,2.7.78,13.67,13.67,0,0,1,3.84,2.5,18.29,18.29,0,0,1,3.65,5.07c2.11,4.24,3.17,10.05,3.33,16.73s0,14.31.23,22.73c.11,4.2.3,8.61.72,13.19a77.67,77.67,0,0,0,2.39,14.08,26.14,26.14,0,0,0,2.94,6.87,12.8,12.8,0,0,0,2.51,2.84,8.81,8.81,0,0,0,3.43,1.61c2.56.34,5.29.32,8,.41s5.47.1,8.26.12c22.32.15,46.9-.1,72.74-.41l-.26.26V430.18c0-6.18,0-12.26,0-18.2v-4.44a34.72,34.72,0,0,0-.16-4.35,19.78,19.78,0,0,0-15.93-17,45.31,45.31,0,0,0-7.88-.4l-7.69-.05-28-.22Z" style="fill:#263238"></path><path d="M254.89,471.94s11.56,0,14-17.05c2.95-20.32,0-38.12,15.71-38.79s57.84,0,57.84,0v55.84Z" style="fill:#e0e0e0"></path><path d="M282.67,416.3s12.67-1.53,12.67,19.53.33,35,14.37,36.55,100.31,0,100.31,0-13.71-6.46-14.71-25.52-5-30.68-18.73-31.05S282.67,416.3,282.67,416.3Z" style="fill:#fafafa"></path><path d="M282.67,416.3l.85,0,2.49,0,9.61-.15,35.35-.38,24.44-.17,13.63,0c2.34,0,4.72,0,7.13.07a20.28,20.28,0,0,1,7.24,1.39,14.66,14.66,0,0,1,5.88,4.72,24.5,24.5,0,0,1,3.47,6.91,68,68,0,0,1,2.63,15.66c.09,1.35.16,2.7.31,4l.2,2,.38,2,.18,1,.28,1,.56,2a35,35,0,0,0,1.59,3.8,27.49,27.49,0,0,0,11.24,12.08l.87.48-1,0-2.39,0c-23.15.38-45.2.63-65.26.62-10,0-19.57,0-28.49-.42a40.64,40.64,0,0,1-6.56-.71,13.29,13.29,0,0,1-5.69-2.87,13.94,13.94,0,0,1-3.52-5,26.43,26.43,0,0,1-1.69-5.6,69.41,69.41,0,0,1-1.08-10.78c-.13-3.42-.14-6.64-.14-9.66,0-1.5,0-3-.07-4.35,0-.7,0-1.38-.1-2.05s-.16-1.32-.24-1.95l-.12-.95c-.06-.31-.13-.61-.2-.91-.13-.6-.27-1.19-.39-1.76l-.56-1.62-.27-.77-.36-.72a12.19,12.19,0,0,0-3.32-4.45,9.79,9.79,0,0,0-3.56-2,9.53,9.53,0,0,0-2.48-.45c-.29,0-.5,0-.65,0h-.21a1.92,1.92,0,0,1,.21,0,5.66,5.66,0,0,1,.65,0,9.42,9.42,0,0,1,2.51.41,9.71,9.71,0,0,1,3.63,1.95,12.38,12.38,0,0,1,3.41,4.48c2,3.83,2.43,9.18,2.41,15.17,0,3,0,6.24.18,9.65a71.1,71.1,0,0,0,1.11,10.72,26.13,26.13,0,0,0,1.68,5.52A13.55,13.55,0,0,0,301.9,469a12.69,12.69,0,0,0,5.52,2.76,39,39,0,0,0,6.48.68c8.91.37,18.44.38,28.47.38,20.05,0,42.1-.29,65.25-.66l2.39-.05-.11.5a28,28,0,0,1-11.48-12.32,36.28,36.28,0,0,1-1.61-3.87l-.57-2-.28-1-.19-1-.38-2-.2-2c-.15-1.37-.22-2.71-.31-4a67.24,67.24,0,0,0-2.6-15.55A23.93,23.93,0,0,0,388.9,422a14.17,14.17,0,0,0-5.68-4.58,20,20,0,0,0-7.06-1.37c-2.41,0-4.78-.06-7.12-.08H355.41l-24.44.1-35.35.22-9.61.05h-2.5Z" style="fill:#263238"></path><path d="M286,416.27c0,.06-1,0-2.8.21a12.11,12.11,0,0,0-6.73,3.27c-2.35,2.19-4.11,5.78-5,9.93s-1,8.92-1.17,13.87a68.84,68.84,0,0,1-1.62,13.91,32.86,32.86,0,0,1-2.07,5.77,21.26,21.26,0,0,1-2.73,4.6,11.51,11.51,0,0,1-3.37,2.85,11.9,11.9,0,0,1-3.16,1.09,12.89,12.89,0,0,1-2.09.19,4.07,4.07,0,0,1-.73,0,3.54,3.54,0,0,1,.73-.09,13.54,13.54,0,0,0,2-.28,11.69,11.69,0,0,0,3.05-1.15,11.07,11.07,0,0,0,3.24-2.83,21.57,21.57,0,0,0,2.62-4.54,34.46,34.46,0,0,0,2-5.71,70.57,70.57,0,0,0,1.56-13.82c.21-4.93.28-9.7,1.22-13.94s2.75-7.87,5.21-10.1a12,12,0,0,1,6.95-3.2,9.33,9.33,0,0,1,1.21-.09,8.39,8.39,0,0,1,.89,0A3.81,3.81,0,0,1,286,416.27Z" style="fill:#263238"></path><path d="M328.08,400.32c0,.14-16.2.26-36.18.26s-36.18-.12-36.18-.26,16.19-.26,36.18-.26S328.08,400.17,328.08,400.32Z" style="fill:#e0e0e0"></path><path d="M329.58,411.08c0,.14-15.67.26-35,.26s-35-.12-35-.26,15.66-.26,35-.26S329.58,410.94,329.58,411.08Z" style="fill:#e0e0e0"></path><path d="M378.91,432c0,.15-16.2.26-36.18.26s-36.18-.11-36.18-.26,16.2-.26,36.18-.26S378.91,431.87,378.91,432Z" style="fill:#e0e0e0"></path><path d="M379.81,444.57c0,.14-14.86.26-33.19.26s-33.19-.12-33.19-.26,14.86-.26,33.19-.26S379.81,444.43,379.81,444.57Z" style="fill:#e0e0e0"></path><rect x="309.15" y="164.45" width="13.34" height="13.34" rx="3.15" style="fill:#fff"></rect></g></svg>
