<svg xmlns="http://www.w3.org/2000/svg" viewBox="0 0 500 500"><g id="freepik--Folder--inject-2"><path d="M286.19,266.16a10.7,10.7,0,0,1-5.34-1.44L276.11,262a10.72,10.72,0,0,1-3.92-14.63h0a10.71,10.71,0,0,1,14.62-3.92l4.75,2.74a10.71,10.71,0,0,1-5.37,20Zm-4.72-18.79a5.33,5.33,0,0,0-4.63,2.67h0a5.34,5.34,0,0,0,2,7.29l4.75,2.74a5.34,5.34,0,0,0,5.34-9.24l-4.76-2.74A5.21,5.21,0,0,0,281.47,247.37Zm-7,1.33h0Z" style="fill:#263238"></path><g style="opacity:0.4"><path d="M286.19,266.16a10.7,10.7,0,0,1-5.34-1.44L276.11,262a10.72,10.72,0,0,1-3.92-14.63h0a10.71,10.71,0,0,1,14.62-3.92l4.75,2.74a10.71,10.71,0,0,1-5.37,20Zm-4.72-18.79a5.33,5.33,0,0,0-4.63,2.67h0a5.34,5.34,0,0,0,2,7.29l4.75,2.74a5.34,5.34,0,0,0,5.34-9.24l-4.76-2.74A5.21,5.21,0,0,0,281.47,247.37Zm-7,1.33h0Z" style="fill:#fff"></path></g><path d="M289.07,279.85a10.64,10.64,0,0,1-1.59-.12h0a10.7,10.7,0,0,1-9-12.16l.81-5.42a10.7,10.7,0,1,1,21.17,3.14l-.8,5.43a10.7,10.7,0,0,1-10.57,9.13Zm.77-21.46a5.34,5.34,0,0,0-5.26,4.55l-.81,5.42a5.33,5.33,0,0,0,4.49,6.06h0a5.33,5.33,0,0,0,6.06-4.49l.8-5.42a5.34,5.34,0,0,0-4.49-6.07A7.16,7.16,0,0,0,289.84,258.39Z" style="fill:#263238"></path><g style="opacity:0.6000000000000001"><path d="M289.07,279.85a10.64,10.64,0,0,1-1.59-.12h0a10.7,10.7,0,0,1-9-12.16l.81-5.42a10.7,10.7,0,1,1,21.17,3.14l-.8,5.43a10.7,10.7,0,0,1-10.57,9.13Zm.77-21.46a5.34,5.34,0,0,0-5.26,4.55l-.81,5.42a5.33,5.33,0,0,0,4.49,6.06h0a5.33,5.33,0,0,0,6.06-4.49l.8-5.42a5.34,5.34,0,0,0-4.49-6.07A7.16,7.16,0,0,0,289.84,258.39Z" style="fill:#fff"></path></g><path d="M108.54,271.56a10.69,10.69,0,0,1-7.1-2.69h0a10.71,10.71,0,0,1-.9-15.12l3.64-4.1a10.7,10.7,0,1,1,16,14.21L116.55,268A10.66,10.66,0,0,1,108.54,271.56Zm3.65-20.14a5.31,5.31,0,0,0-4,1.8l-3.64,4.1a5.33,5.33,0,0,0,.44,7.53h0a5.34,5.34,0,0,0,7.53-.45l3.64-4.1a5.34,5.34,0,0,0-4-8.88Z" style="fill:#263238"></path><g style="opacity:0.6000000000000001"><path d="M108.54,271.56a10.69,10.69,0,0,1-7.1-2.69h0a10.71,10.71,0,0,1-.9-15.12l3.64-4.1a10.7,10.7,0,1,1,16,14.21L116.55,268A10.66,10.66,0,0,1,108.54,271.56Zm3.65-20.14a5.31,5.31,0,0,0-4,1.8l-3.64,4.1a5.33,5.33,0,0,0,.44,7.53h0a5.34,5.34,0,0,0,7.53-.45l3.64-4.1a5.34,5.34,0,0,0-4-8.88Z" style="fill:#fff"></path></g><rect x="108.1" y="160.19" width="160.94" height="256.05" rx="5.01" style="fill:#FF725E"></rect><rect x="114.09" y="164.92" width="157.89" height="246.06" style="fill:#fff"></rect><rect x="124.22" y="160.19" width="160.94" height="256.05" rx="5.01" style="fill:#FF725E"></rect><rect x="124.22" y="160.19" width="160.94" height="256.05" rx="5.01" style="fill:#fff;opacity:0.2"></rect><polygon points="119.32 164.92 118.78 350.9 118.25 164.92 119.32 164.92" style="opacity:0.2"></polygon><polygon points="120.93 410.98 121.47 186.59 122.01 410.98 120.93 410.98" style="opacity:0.2"></polygon><polygon points="110.69 240.87 96.61 234.41 96.61 186.59 110.69 180.13 110.69 240.87" style="fill:#FF725E"></polygon><g style="opacity:0.6000000000000001"><path d="M159.83,251.5a.59.59,0,0,1-.28-.28.56.56,0,0,1,0-.4.49.49,0,0,1,.22-.27v-.06s0-.05,0-.07v-.08h0a.55.55,0,0,1,0-.31.43.43,0,0,1,.23-.28.41.41,0,0,1,.27,0l-.49-1-9.39,4.49,1.13,2.36,3.66-1.76,2.66,5.55.16-.09a.45.45,0,0,1,.48.06l.2.2a.9.9,0,0,1,.14.2.88.88,0,0,1,.11.42,1.36,1.36,0,0,1,0,.2,2.81,2.81,0,0,0,0,.29.49.49,0,0,1-.15.34.53.53,0,0,1-.1.06l2.59,5.42,2.06-1-6.06-12.65,2.69-1.29Z" style="fill:#fff"></path><path d="M173.32,246.74a.42.42,0,0,1-.18.17.42.42,0,0,1-.42,0s0,0,0,.07a.44.44,0,0,1-.54.31.59.59,0,0,1-.4-.57,5,5,0,0,0,0-.78,2.44,2.44,0,0,0,0-.27,5.94,5.94,0,0,0-5.59-.3c-3.43,1.64-4.39,6.13-2.27,10.57a10,10,0,0,0,4.44,4.76,26.38,26.38,0,0,1-.29-3.06,7.61,7.61,0,0,1-2.08-2.69c-1.46-3.07-.86-6.07,1.37-7.14s4.94.35,6.41,3.41.87,6.07-1.36,7.14a3.55,3.55,0,0,1-2.29.25,21.6,21.6,0,0,1-.62,2.52,5.72,5.72,0,0,0,4.08-.33c3.43-1.64,4.4-6.11,2.26-10.57A11.21,11.21,0,0,0,173.32,246.74Z" style="fill:#fff"></path><path d="M179,239.46l-4.56,2.18,7.19,15,2.06-1-2.08-4.33,1.74-.83a.62.62,0,0,1-.09-.32.52.52,0,0,1,.14-.34.56.56,0,0,1,.17-.09h.09s0,0,.05-.05l0,0h0a.75.75,0,0,1,.14-.17.56.56,0,0,1,.28-.13h.15l.15,0a.52.52,0,0,1,.19.11,1,1,0,0,1,.19.17c2.34-1.5,2.93-4.18,1.48-7.2C184.68,239.22,181.91,238.07,179,239.46Zm3.89,8.36L180.49,249l-2.85-6,2.4-1.15c1.8-.86,3.26-.21,4.16,1.67S184.7,247,182.9,247.82Z" style="fill:#fff"></path><path d="M193.62,237.54c-.54-1.13-.28-2.37,1.43-3.18a5.52,5.52,0,0,1,3.61-.29l-.39-2.47A6.26,6.26,0,0,0,194,232a4.58,4.58,0,0,0-2.89,3.9h.05a3,3,0,0,1,.75.43.61.61,0,0,1,.23.47,1,1,0,0,1-.29.71c-.08.07-.18.12-.25.19h0v0a.55.55,0,0,1-.11.3c.07.19.13.38.22.57,2.68,5.57,8.23.3,9.78,3.54.54,1.11.21,2.3-1.51,3.12a5.71,5.71,0,0,1-4.44.1v.13h.09l.18.1,0,0a.57.57,0,0,1,.11.11h0l.08.12,0,.08a.48.48,0,0,1,0,.22.59.59,0,0,1,0,.13.52.52,0,0,1-.06.13h0a.69.69,0,0,1-.11.13h0l-.12.08,0,0-.05,0,.15,1.17a6.64,6.64,0,0,0,5.23-.29,4.59,4.59,0,0,0,2.9-3.92l-.1,0a.52.52,0,0,1-.36-.1.64.64,0,0,1-.22-.35.52.52,0,0,1,.06-.37.41.41,0,0,1,.3-.21l.14,0a.94.94,0,0,0-.06-.15.59.59,0,0,1,0-.32.57.57,0,0,1-.15-.83c-.05-.12-.08-.24-.14-.36C200.72,235.52,195.15,240.74,193.62,237.54Z" style="fill:#fff"></path><path d="M211.93,239.27a2.76,2.76,0,0,1-.22,1.24,1.2,1.2,0,0,1-.49.53,1.34,1.34,0,0,1-.77.15.58.58,0,0,1-.46-.58.45.45,0,0,1,.5-.44h.15l.11-.05.06-.06a.35.35,0,0,0,.05-.08.08.08,0,0,0,0,0v0a.83.83,0,0,0,0-.15L208.37,241l-2-4.14,3.25-1.55s0-.07,0-.11a15,15,0,0,1-.44-2.48l-3.86,1.85-1.87-3.9,5.26-2.52a.48.48,0,0,1-.11-.15.62.62,0,0,1,0-.4c.1-.36.21-.71.31-1.07l-.52-1.08-3.86,1.84a2.56,2.56,0,0,1-1.23,1.3.49.49,0,0,1-.64-.27.36.36,0,0,1,0-.11l-2.31,1.11,7.19,15,8.3-4L214.61,238Z" style="fill:#fff"></path><path d="M222.77,234.11a.56.56,0,0,1,0,.38s0,0,0,.06a6.53,6.53,0,0,0,0,1,.53.53,0,0,1-.15.34.4.4,0,0,1-.35.1.54.54,0,0,1-.33-.19.69.69,0,0,1-.12-.32.7.7,0,0,1-.13-.17.61.61,0,0,1,0-.4l.08-.26c-2.2.77-4.68-.61-6.08-3.52-1.48-3.08-.86-6.06,1.43-7.16a3.9,3.9,0,0,1,3.8.34l.51-2.33a5.58,5.58,0,0,0-5.58-.41,5.87,5.87,0,0,0-.88.53.14.14,0,0,0,0,.06,1.1,1.1,0,0,1,0,.31,1.13,1.13,0,0,1-.05.32.46.46,0,0,1-.23.28.47.47,0,0,1-.37,0,.58.58,0,0,1-.25-.24c-1.94,2.12-2.23,5.69-.51,9.29,1.86,3.88,5.17,5.91,8.22,5.33,0,0,0,0,0-.08s.05-.13.07-.19l0,0a.58.58,0,0,1,.1-.12.53.53,0,0,1,.25-.12.54.54,0,0,1,.18,0h.05a.76.76,0,0,1-.08-.11.59.59,0,0,1,0-.39.48.48,0,0,1,.23-.29l.67-.31a.45.45,0,0,1,.36,0,.61.61,0,0,1,.29.28.53.53,0,0,1,0,.39.37.37,0,0,1-.07.14,5.67,5.67,0,0,0,1.42-1.34h0a.29.29,0,0,1-.18,0,.38.38,0,0,1-.16-.11.43.43,0,0,1-.13-.17l-.09-.19a.47.47,0,0,1-.05-.26v-.13a.44.44,0,0,1,.13-.21l.11-.07a.27.27,0,0,1,.18,0,.38.38,0,0,1,.18,0,.46.46,0,0,1,.16.11.52.52,0,0,1,.12.17l.09.19a.61.61,0,0,1,0,.11,6.16,6.16,0,0,0,.71-2.28l-2.15-1.08A4.08,4.08,0,0,1,222.77,234.11Z" style="fill:#fff"></path><path d="M234,225.49c1.12-1.51,1.17-3.59.08-5.86a7.26,7.26,0,0,0-1.9-2.51.37.37,0,0,1-.13.15.45.45,0,0,1-.2.58.48.48,0,0,1-.64-.28h-.06a.68.68,0,0,1-.47-.26.08.08,0,0,0,0,0,2.35,2.35,0,0,1-.23.32.48.48,0,0,1-.68-.09.54.54,0,0,1,0-.72l.09-.1a3.08,3.08,0,0,0,.35-.58,5.09,5.09,0,0,0-3.39.45l-4.55,2.18,2.9,6.05a.69.69,0,0,1,.13-.11l.1,0h0a.58.58,0,0,1,0-.18l0-.13a.38.38,0,0,1,.13-.21l.1-.07a.3.3,0,0,1,.18,0,.44.44,0,0,1,.19,0,.57.57,0,0,1,.16.11.52.52,0,0,1,.12.17c0,.07.05.14.07.2s0,.06,0,.09a2.44,2.44,0,0,1,0,.27,2,2,0,0,1,0,.24.09.09,0,0,1,0,.05.46.46,0,0,1-.13.21l0,0,.32.66a.51.51,0,0,1-.19.68.47.47,0,0,1-.17,0l3.33,7,2.06-1-2.1-4.37,2.5-1.2a4.36,4.36,0,0,0,.42-.23l4.36,3.32,2.21-1.06Zm-3.28-.56-2.41,1.15-2.86-6,2.4-1.15c1.8-.86,3.26-.22,4.16,1.67S232.54,224.07,230.74,224.93Z" style="fill:#fff"></path><path d="M240,220.74l5.34-2.56-.39-.82h-.11a.87.87,0,0,1-.38-.11,1.51,1.51,0,0,1-.26-.18l-.14-.14a.81.81,0,0,1-.16-.32,2.5,2.5,0,0,0-.07-.26h0s0-.07,0-.11l-.06-.12-4.83,2.31-1.87-3.9,3.41-1.63a.62.62,0,0,1-.32-.28.52.52,0,0,1,.2-.68,5.2,5.2,0,0,0,.46-.25.81.81,0,0,0,.14-.12l.1-.09a0,0,0,0,1,0,0v0a.47.47,0,0,1,.76,0,2.44,2.44,0,0,1,.39.63l.87-.41-1.12-2.34-8.08,3.87,1.21,2.52h0a.44.44,0,0,1,.54-.18.58.58,0,0,1,.32.67s0,.06,0,.09a1.55,1.55,0,0,1-.12.9l0,0,5.26,11,5.09-2.44v0c0-.1,0-.21.07-.31l0-.12v-.05c0-.17.05-.34.09-.51a1.83,1.83,0,0,1,.56-.91c.32-.28.8,0,.81.47a3.58,3.58,0,0,1-.06.74l1.71-.82-1.12-2.33-6.24,3Z" style="fill:#fff"></path><path d="M251.06,204.94a.46.46,0,0,1-.24.37,1,1,0,0,0-.17.1,1.15,1.15,0,0,0-.23.21,1.49,1.49,0,0,0-.18.3,1.55,1.55,0,0,0-.08.23.45.45,0,0,1-.6.28.58.58,0,0,1-.32-.62l-6.23,3,1.13,2.35,3.67-1.75,4.25,8.87a2.27,2.27,0,0,1,.25.06,2.22,2.22,0,0,1,.72.5,4.06,4.06,0,0,1,.86,1.66.46.46,0,0,1-.36.58.57.57,0,0,1-.13,0l.47,1,2-1-6.06-12.65,3.67-1.75-1.13-2.36Z" style="fill:#fff"></path><path d="M169.5,272.13a3.49,3.49,0,0,1-1.41,1h0s0,0,0,.06a2.73,2.73,0,0,1-1.36,1.75,2,2,0,0,1-1.62,0,1.51,1.51,0,0,1-.21.23,1.48,1.48,0,0,1-.34.21,1.29,1.29,0,0,1-.51.07.45.45,0,0,1-.33-.19.58.58,0,0,1-.12-.28l-8.37,4L140.5,248.24l37.16-17.8,0-.17,0-.1h0c0-.13,0-.26,0-.39a8.51,8.51,0,0,0,0-.88l0-.46h0v0s0-.07,0-.1,0-.08,0-.12l-8.42,4c0,.09-.08.18-.13.27a2.4,2.4,0,0,1-2.78,1.12L138,247.19l1.27,2.66a.48.48,0,0,1,.36-.52.55.55,0,0,1,.58.45,8,8,0,0,0,.45,1.17l.06-.06a.48.48,0,0,1,.68.09.56.56,0,0,1,.11.43.63.63,0,0,1,.29.52,12.16,12.16,0,0,0,.29,1.86,7.65,7.65,0,0,1,.16,2.07.7.7,0,0,1,0,.14l10.47,21.85a3.16,3.16,0,0,1,.68.49,3.25,3.25,0,0,1,1,1.83.44.44,0,0,1-.3.54l.4.85L218.19,251c.31-.48.63-1,.93-1.46a7.86,7.86,0,0,0,.71-1.56Z" style="fill:#fff"></path><path d="M270,222.91s0-.11,0-.13h0c0-.16-.05-.32-.08-.47-.08-.31-.17-.61-.22-.92a.52.52,0,0,1,.15-.47L258,196.1h0a1.28,1.28,0,0,1-1-.31,6.18,6.18,0,0,1-.74-.87.55.55,0,0,1,0-.73.46.46,0,0,1,.67.09l.24.3c0-.09,0-.18,0-.28l-1.61-3.37-32.13,15.39a.44.44,0,0,1-.24.49.44.44,0,0,1-.53-.12l-3.39,1.63h0a.4.4,0,0,1,0,.19,1.38,1.38,0,0,1-.18.39c-.05.07-.1.14-.14.21v0a.46.46,0,0,1-.23.28.41.41,0,0,1-.36,0,.39.39,0,0,1-.17-.11.48.48,0,0,1-.12-.16.49.49,0,0,1-.05-.2v0L178.6,227.76a.59.59,0,0,1,.06.14,8.19,8.19,0,0,1,.07,1.71.56.56,0,0,1,.23.2l75.77-36.3,14.72,30.74L221,247.48a6.79,6.79,0,0,1-1,2.72l1.31-.62v-.17a.94.94,0,0,0,0-.16c0-.09-.07-.18-.11-.27a.59.59,0,0,1,0-.39.5.5,0,0,1,.24-.29h0a.4.4,0,0,1,.24-.34.43.43,0,0,1,.55.16h.06a2.43,2.43,0,0,1,.52.17.59.59,0,0,1,.29.27.61.61,0,0,1,.05.18l47.82-22.9a.58.58,0,0,1-.1-.66,6.1,6.1,0,0,1,.63-1.08l-.4-.85s0,0,0,.07a.45.45,0,0,1-.5.45.57.57,0,0,1-.46-.58A2.44,2.44,0,0,0,270,222.91Z" style="fill:#fff"></path></g><polygon points="115.56 410.98 116.1 251.07 116.64 410.98 115.56 410.98" style="opacity:0.2"></polygon><path d="M110.77,284.34a6.82,6.82,0,0,1-1.67-.21,6.68,6.68,0,0,1-4.1-3.08l-6.88-11.62a6.71,6.71,0,0,1,2.36-9.17,6.7,6.7,0,0,1,9.17,2.35l6.87,11.62a6.7,6.7,0,0,1-5.75,10.11Zm-6.89-19.65a1.35,1.35,0,0,0-.67.19,1.31,1.31,0,0,0-.46,1.81l6.87,11.63a1.33,1.33,0,0,0,.81.61,1.36,1.36,0,0,0,1-.15h0a1.31,1.31,0,0,0,.61-.81,1.29,1.29,0,0,0-.15-1L105,265.35a1.32,1.32,0,0,0-.81-.61A1.06,1.06,0,0,0,103.88,264.69Z" style="fill:#263238"></path><path d="M136.44,302.51a6.7,6.7,0,0,1-3.41-.94l-11.61-6.9a6.69,6.69,0,0,1,6.84-11.51l11.61,6.9a6.7,6.7,0,0,1-3.43,12.45Zm-11.6-14.92a1.41,1.41,0,0,0-.33,0,1.31,1.31,0,0,0-.81.61,1.29,1.29,0,0,0-.15,1,1.31,1.31,0,0,0,.61.81l11.61,6.9a1.32,1.32,0,1,0,1.35-2.28l-11.61-6.9A1.3,1.3,0,0,0,124.84,287.59Z" style="fill:#263238"></path><path d="M166.86,311.71a6.65,6.65,0,0,1-1.65-.2l-13.09-3.31a6.7,6.7,0,0,1-4.85-8.13,6.69,6.69,0,0,1,8.13-4.85l13.09,3.31a6.7,6.7,0,0,1,1.79,12.24A6.7,6.7,0,0,1,166.86,311.71Zm-13.1-11.33a1.34,1.34,0,0,0-1.29,1,1.33,1.33,0,0,0,1,1.61l13.1,3.31a1.32,1.32,0,0,0,1.61-1h0a1.31,1.31,0,0,0-.15-1,1.33,1.33,0,0,0-.81-.61l-13.1-3.31A1.22,1.22,0,0,0,153.76,300.38Z" style="fill:#263238"></path><path d="M197.8,315.58l-.64,0-13.44-1.26a6.61,6.61,0,0,1-4.53-2.39,6.68,6.68,0,0,1,.88-9.43A6.62,6.62,0,0,1,185,301l13.45,1.26a6.69,6.69,0,0,1,6,7.28,6.71,6.71,0,0,1-6.65,6.08Zm-13.46-9.28a1.35,1.35,0,0,0-.85.31,1.32,1.32,0,0,0-.47.89,1.34,1.34,0,0,0,1.2,1.45l13.44,1.25a1.28,1.28,0,0,0,1-.3,1.33,1.33,0,0,0,.48-.9h0a1.34,1.34,0,0,0-1.2-1.44l-13.45-1.25Z" style="fill:#263238"></path><g style="opacity:0.4"><path d="M110.77,284.34a6.82,6.82,0,0,1-1.67-.21,6.68,6.68,0,0,1-4.1-3.08l-6.88-11.62a6.71,6.71,0,0,1,2.36-9.17,6.7,6.7,0,0,1,9.17,2.35l6.87,11.62a6.7,6.7,0,0,1-5.75,10.11Zm-6.89-19.65a1.35,1.35,0,0,0-.67.19,1.31,1.31,0,0,0-.46,1.81l6.87,11.63a1.33,1.33,0,0,0,.81.61,1.36,1.36,0,0,0,1-.15h0a1.31,1.31,0,0,0,.61-.81,1.29,1.29,0,0,0-.15-1L105,265.35a1.32,1.32,0,0,0-.81-.61A1.06,1.06,0,0,0,103.88,264.69Z" style="fill:#fff"></path><path d="M136.44,302.51a6.7,6.7,0,0,1-3.41-.94l-11.61-6.9a6.69,6.69,0,0,1,6.84-11.51l11.61,6.9a6.7,6.7,0,0,1-3.43,12.45Zm-11.6-14.92a1.41,1.41,0,0,0-.33,0,1.31,1.31,0,0,0-.81.61,1.29,1.29,0,0,0-.15,1,1.31,1.31,0,0,0,.61.81l11.61,6.9a1.32,1.32,0,1,0,1.35-2.28l-11.61-6.9A1.3,1.3,0,0,0,124.84,287.59Z" style="fill:#fff"></path><path d="M166.86,311.71a6.65,6.65,0,0,1-1.65-.2l-13.09-3.31a6.7,6.7,0,0,1-4.85-8.13,6.69,6.69,0,0,1,8.13-4.85l13.09,3.31a6.7,6.7,0,0,1,1.79,12.24A6.7,6.7,0,0,1,166.86,311.71Zm-13.1-11.33a1.34,1.34,0,0,0-1.29,1,1.33,1.33,0,0,0,1,1.61l13.1,3.31a1.32,1.32,0,0,0,1.61-1h0a1.31,1.31,0,0,0-.15-1,1.33,1.33,0,0,0-.81-.61l-13.1-3.31A1.22,1.22,0,0,0,153.76,300.38Z" style="fill:#fff"></path><path d="M197.8,315.58l-.64,0-13.44-1.26a6.61,6.61,0,0,1-4.53-2.39,6.68,6.68,0,0,1,.88-9.43A6.62,6.62,0,0,1,185,301l13.45,1.26a6.69,6.69,0,0,1,6,7.28,6.71,6.71,0,0,1-6.65,6.08Zm-13.46-9.28a1.35,1.35,0,0,0-.85.31,1.32,1.32,0,0,0-.47.89,1.34,1.34,0,0,0,1.2,1.45l13.44,1.25a1.28,1.28,0,0,0,1-.3,1.33,1.33,0,0,0,.48-.9h0a1.34,1.34,0,0,0-1.2-1.44l-13.45-1.25Z" style="fill:#fff"></path></g><path d="M119,296.72a10.64,10.64,0,0,1-7.1-2.69l-4.1-3.64a10.7,10.7,0,1,1,14.21-16l4.1,3.64a10.7,10.7,0,0,1,.9,15.11h0A10.66,10.66,0,0,1,119,296.72Zm-4.09-19.67h-.33a5.33,5.33,0,0,0-3.22,9.31l4.1,3.64a5.35,5.35,0,0,0,7.54-.44h0a5.36,5.36,0,0,0-.45-7.54l-4.11-3.64A5.3,5.3,0,0,0,114.87,277.05ZM125,291.35h0Z" style="fill:#263238"></path><path d="M147.74,310a10.68,10.68,0,0,1-3.54-.61L139,307.58a10.7,10.7,0,1,1,7.11-20.19l5.18,1.82a10.72,10.72,0,0,1,6.54,13.65h0A10.73,10.73,0,0,1,147.74,310Zm-5.17-17.87a5.34,5.34,0,0,0-5,3.57,5.32,5.32,0,0,0,3.26,6.8l5.17,1.83a5.35,5.35,0,0,0,6.8-3.26h0a5.34,5.34,0,0,0-3.26-6.81l-5.17-1.82A5.47,5.47,0,0,0,142.57,292.14Z" style="fill:#263238"></path><path d="M178.19,317.15a10.48,10.48,0,0,1-1.92-.18l-5.4-1a10.7,10.7,0,0,1-4.16-19.34,10.58,10.58,0,0,1,8-1.72l5.39,1a10.71,10.71,0,0,1,8.61,12.45h0A10.73,10.73,0,0,1,178.19,317.15Zm-5.41-17a5.25,5.25,0,0,0-3,.95,5.33,5.33,0,0,0,2.08,9.64l5.39,1a5.34,5.34,0,0,0,1.92-10.5l-5.4-1A5.31,5.31,0,0,0,172.78,300.12Zm13.3,7.76h0Z" style="fill:#263238"></path><g style="opacity:0.6000000000000001"><path d="M119,296.72a10.64,10.64,0,0,1-7.1-2.69l-4.1-3.64a10.7,10.7,0,1,1,14.21-16l4.1,3.64a10.7,10.7,0,0,1,.9,15.11h0A10.66,10.66,0,0,1,119,296.72Zm-4.09-19.67h-.33a5.33,5.33,0,0,0-3.22,9.31l4.1,3.64a5.35,5.35,0,0,0,7.54-.44h0a5.36,5.36,0,0,0-.45-7.54l-4.11-3.64A5.3,5.3,0,0,0,114.87,277.05ZM125,291.35h0Z" style="fill:#fff"></path><path d="M147.74,310a10.68,10.68,0,0,1-3.54-.61L139,307.58a10.7,10.7,0,1,1,7.11-20.19l5.18,1.82a10.72,10.72,0,0,1,6.54,13.65h0A10.73,10.73,0,0,1,147.74,310Zm-5.17-17.87a5.34,5.34,0,0,0-5,3.57,5.32,5.32,0,0,0,3.26,6.8l5.17,1.83a5.35,5.35,0,0,0,6.8-3.26h0a5.34,5.34,0,0,0-3.26-6.81l-5.17-1.82A5.47,5.47,0,0,0,142.57,292.14Z" style="fill:#fff"></path><path d="M178.19,317.15a10.48,10.48,0,0,1-1.92-.18l-5.4-1a10.7,10.7,0,0,1-4.16-19.34,10.58,10.58,0,0,1,8-1.72l5.39,1a10.71,10.71,0,0,1,8.61,12.45h0A10.73,10.73,0,0,1,178.19,317.15Zm-5.41-17a5.25,5.25,0,0,0-3,.95,5.33,5.33,0,0,0,2.08,9.64l5.39,1a5.34,5.34,0,0,0,1.92-10.5l-5.4-1A5.31,5.31,0,0,0,172.78,300.12Zm13.3,7.76h0Z" style="fill:#fff"></path></g><path d="M227,316.66a6.69,6.69,0,0,1-.48-13.37l13.47-1a6.69,6.69,0,1,1,1,13.35l-13.46,1Zm13.48-9h-.1l-13.47,1a1.34,1.34,0,0,0-.91.45,1.38,1.38,0,0,0-.32,1,1.35,1.35,0,0,0,.46.9,1.27,1.27,0,0,0,1,.32l13.47-1a1.34,1.34,0,0,0,.91-.45,1.37,1.37,0,0,0,.32-1h0A1.33,1.33,0,0,0,240.5,307.66Z" style="fill:#263238"></path><path d="M255.91,310a6.7,6.7,0,0,1-3.65-12.32l11.35-7.32a6.69,6.69,0,0,1,7.26,11.24l-11.34,7.33A6.69,6.69,0,0,1,255.91,310Zm11.33-15.35a1.29,1.29,0,0,0-.72.22l-11.34,7.32a1.32,1.32,0,1,0,1.43,2.23L268,297.1a1.32,1.32,0,0,0,.39-1.83,1.36,1.36,0,0,0-.83-.58A1.84,1.84,0,0,0,267.24,294.66Z" style="fill:#263238"></path><path d="M280.22,289.8a6.69,6.69,0,0,1-5.08-11.05l8.79-10.25a6.71,6.71,0,0,1,9.44-.73h0a6.7,6.7,0,0,1,.72,9.44l-8.79,10.26A6.68,6.68,0,0,1,280.22,289.8ZM289,271.53a1.33,1.33,0,0,0-1,.46l-8.8,10.26a1.33,1.33,0,0,0,2,1.72L290,273.72a1.33,1.33,0,0,0-1-2.19Z" style="fill:#263238"></path><g style="opacity:0.4"><path d="M227,316.66a6.69,6.69,0,0,1-.48-13.37l13.47-1a6.69,6.69,0,1,1,1,13.35l-13.46,1Zm13.48-9h-.1l-13.47,1a1.34,1.34,0,0,0-.91.45,1.38,1.38,0,0,0-.32,1,1.35,1.35,0,0,0,.46.9,1.27,1.27,0,0,0,1,.32l13.47-1a1.34,1.34,0,0,0,.91-.45,1.37,1.37,0,0,0,.32-1h0A1.33,1.33,0,0,0,240.5,307.66Z" style="fill:#fff"></path><path d="M255.91,310a6.7,6.7,0,0,1-3.65-12.32l11.35-7.32a6.69,6.69,0,0,1,7.26,11.24l-11.34,7.33A6.69,6.69,0,0,1,255.91,310Zm11.33-15.35a1.29,1.29,0,0,0-.72.22l-11.34,7.32a1.32,1.32,0,1,0,1.43,2.23L268,297.1a1.32,1.32,0,0,0,.39-1.83,1.36,1.36,0,0,0-.83-.58A1.84,1.84,0,0,0,267.24,294.66Z" style="fill:#fff"></path><path d="M280.22,289.8a6.69,6.69,0,0,1-5.08-11.05l8.79-10.25a6.71,6.71,0,0,1,9.44-.73h0a6.7,6.7,0,0,1,.72,9.44l-8.79,10.26A6.68,6.68,0,0,1,280.22,289.8ZM289,271.53a1.33,1.33,0,0,0-1,.46l-8.8,10.26a1.33,1.33,0,0,0,2,1.72L290,273.72a1.33,1.33,0,0,0-1-2.19Z" style="fill:#fff"></path></g><path d="M246.08,319.09a10.7,10.7,0,0,1-4-20.63l5.08-2.06a10.72,10.72,0,0,1,13.94,5.92h0a10.72,10.72,0,0,1-5.92,13.93l-5.08,2.06A10.81,10.81,0,0,1,246.08,319.09Zm5.09-18.1a5.39,5.39,0,0,0-2,.39l-5.08,2.06a5.33,5.33,0,0,0,4,9.89l5.09-2.06a5.33,5.33,0,0,0,3-6.94h0a5.36,5.36,0,0,0-5-3.34Z" style="fill:#263238"></path><path d="M271.46,301.94A10.7,10.7,0,0,1,264,283.57l3.94-3.83a10.71,10.71,0,0,1,15.13.22,10.71,10.71,0,0,1-.21,15.14l-3.94,3.82A10.65,10.65,0,0,1,271.46,301.94Zm3.94-19.85a5.32,5.32,0,0,0-3.72,1.5l-3.94,3.83a5.34,5.34,0,0,0,7.44,7.65l3.93-3.82a5.33,5.33,0,0,0-3.71-9.16Z" style="fill:#263238"></path><g style="opacity:0.6000000000000001"><path d="M246.08,319.09a10.7,10.7,0,0,1-4-20.63l5.08-2.06a10.72,10.72,0,0,1,13.94,5.92h0a10.72,10.72,0,0,1-5.92,13.93l-5.08,2.06A10.81,10.81,0,0,1,246.08,319.09Zm5.09-18.1a5.39,5.39,0,0,0-2,.39l-5.08,2.06a5.33,5.33,0,0,0,4,9.89l5.09-2.06a5.33,5.33,0,0,0,3-6.94h0a5.36,5.36,0,0,0-5-3.34Z" style="fill:#fff"></path><path d="M271.46,301.94A10.7,10.7,0,0,1,264,283.57l3.94-3.83a10.71,10.71,0,0,1,15.13.22,10.71,10.71,0,0,1-.21,15.14l-3.94,3.82A10.65,10.65,0,0,1,271.46,301.94Zm3.94-19.85a5.32,5.32,0,0,0-3.72,1.5l-3.94,3.83a5.34,5.34,0,0,0,7.44,7.65l3.93-3.82a5.33,5.33,0,0,0-3.71-9.16Z" style="fill:#fff"></path></g><path d="M233.63,330.46h-6.71V309.89a14.27,14.27,0,1,0-28.53,0v20.57h-6.7V309.89a21,21,0,1,1,41.94,0Z" style="fill:#263238"></path><g style="opacity:0.30000000000000004"><path d="M233.63,330.46h-6.71V309.89a14.27,14.27,0,1,0-28.53,0v20.57h-6.7V309.89a21,21,0,1,1,41.94,0Z" style="fill:#fff"></path></g><path d="M240.67,325.23v33.66a3.9,3.9,0,0,1-3.9,3.91H187.26a3.9,3.9,0,0,1-3.89-3.91V325.23a3.9,3.9,0,0,1,3.89-3.91h49.51A3.9,3.9,0,0,1,240.67,325.23Z" style="fill:#263238"></path><path d="M240.67,325.23v33.66a3.9,3.9,0,0,1-3.9,3.91H200.68a3.91,3.91,0,0,1-3.9-3.91V325.23a3.91,3.91,0,0,1,3.9-3.91h36.09A3.9,3.9,0,0,1,240.67,325.23Z" style="fill:#fff;opacity:0.2"></path><path d="M225,337.83c0-4.15-2.81-7.51-6.26-7.51s-6.27,3.36-6.27,7.51a7.56,7.56,0,0,0,4.09,7l-.33,8.95h5l-.75-8.79A7.42,7.42,0,0,0,225,337.83Z" style="fill:#263238"></path><path d="M287.87,279.76l-.39,0a10.7,10.7,0,0,1-9-12.16l.81-5.42a10.7,10.7,0,0,1,12.16-9,2.68,2.68,0,0,1-.79,5.31,5.33,5.33,0,0,0-4,1,5.26,5.26,0,0,0-2.1,3.5l-.81,5.42a5.33,5.33,0,0,0,4.49,6.06,2.68,2.68,0,0,1-.39,5.34Z" style="fill:#263238"></path><g style="opacity:0.6000000000000001"><path d="M287.87,279.76l-.39,0a10.7,10.7,0,0,1-9-12.16l.81-5.42a10.7,10.7,0,0,1,12.16-9,2.68,2.68,0,0,1-.79,5.31,5.33,5.33,0,0,0-4,1,5.26,5.26,0,0,0-2.1,3.5l-.81,5.42a5.33,5.33,0,0,0,4.49,6.06,2.68,2.68,0,0,1-.39,5.34Z" style="fill:#fff"></path></g><path d="M238.65,314.07a2.68,2.68,0,0,1-2.49-1.68,10.69,10.69,0,0,1,5.92-13.93l5.08-2.06a10.72,10.72,0,0,1,13.94,5.92,2.69,2.69,0,0,1-5,2,5.34,5.34,0,0,0-7-2.95l-5.08,2.06a5.34,5.34,0,0,0-3,6.94,2.7,2.7,0,0,1-1.48,3.5A2.74,2.74,0,0,1,238.65,314.07Z" style="fill:#263238"></path><path d="M265.71,299.52a2.67,2.67,0,0,1-1.92-.82,10.7,10.7,0,0,1,.21-15.13l3.94-3.83a10.71,10.71,0,0,1,15.13.22,2.68,2.68,0,1,1-3.85,3.74,5.34,5.34,0,0,0-7.54-.11l-3.94,3.83a5.34,5.34,0,0,0-.1,7.54,2.69,2.69,0,0,1-1.93,4.56Z" style="fill:#263238"></path><g style="opacity:0.6000000000000001"><path d="M238.65,314.07a2.68,2.68,0,0,1-2.49-1.68,10.69,10.69,0,0,1,5.92-13.93l5.08-2.06a10.72,10.72,0,0,1,13.94,5.92,2.69,2.69,0,0,1-5,2,5.34,5.34,0,0,0-7-2.95l-5.08,2.06a5.34,5.34,0,0,0-3,6.94,2.7,2.7,0,0,1-1.48,3.5A2.74,2.74,0,0,1,238.65,314.07Z" style="fill:#fff"></path><path d="M265.71,299.52a2.67,2.67,0,0,1-1.92-.82,10.7,10.7,0,0,1,.21-15.13l3.94-3.83a10.71,10.71,0,0,1,15.13.22,2.68,2.68,0,1,1-3.85,3.74,5.34,5.34,0,0,0-7.54-.11l-3.94,3.83a5.34,5.34,0,0,0-.1,7.54,2.69,2.69,0,0,1-1.93,4.56Z" style="fill:#fff"></path></g><path d="M255.91,310a6.71,6.71,0,0,1-5.64-3.06,2.68,2.68,0,1,1,4.51-2.91,1.34,1.34,0,0,0,1.83.39L268,297.1a1.32,1.32,0,0,0,.39-1.83,2.68,2.68,0,1,1,4.51-2.91,6.69,6.69,0,0,1-2,9.25l-11.34,7.33A6.69,6.69,0,0,1,255.91,310Z" style="fill:#263238"></path><path d="M280.22,289.8a6.67,6.67,0,0,1-4.36-1.61,2.69,2.69,0,0,1,3.5-4.08,1.32,1.32,0,0,0,1.87-.14L290,273.72a1.33,1.33,0,0,0-.15-1.87,2.69,2.69,0,0,1,3.5-4.08,6.7,6.7,0,0,1,.72,9.44l-8.79,10.26A6.68,6.68,0,0,1,280.22,289.8Z" style="fill:#263238"></path><path d="M227,316.66a6.68,6.68,0,0,1-6.67-6.2,2.68,2.68,0,1,1,5.35-.39,1.35,1.35,0,0,0,.46.9,1.27,1.27,0,0,0,1,.32l13.47-1a1.34,1.34,0,0,0,.91-.45,1.37,1.37,0,0,0,.32-1,2.68,2.68,0,1,1,5.35-.4,6.69,6.69,0,0,1-6.19,7.17l-13.46,1Z" style="fill:#263238"></path><g style="opacity:0.5"><path d="M255.91,310a6.71,6.71,0,0,1-5.64-3.06,2.68,2.68,0,1,1,4.51-2.91,1.34,1.34,0,0,0,1.83.39L268,297.1a1.32,1.32,0,0,0,.39-1.83,2.68,2.68,0,1,1,4.51-2.91,6.69,6.69,0,0,1-2,9.25l-11.34,7.33A6.69,6.69,0,0,1,255.91,310Z" style="fill:#fff"></path><path d="M280.22,289.8a6.67,6.67,0,0,1-4.36-1.61,2.69,2.69,0,0,1,3.5-4.08,1.32,1.32,0,0,0,1.87-.14L290,273.72a1.33,1.33,0,0,0-.15-1.87,2.69,2.69,0,0,1,3.5-4.08,6.7,6.7,0,0,1,.72,9.44l-8.79,10.26A6.68,6.68,0,0,1,280.22,289.8Z" style="fill:#fff"></path><path d="M227,316.66a6.68,6.68,0,0,1-6.67-6.2,2.68,2.68,0,1,1,5.35-.39,1.35,1.35,0,0,0,.46.9,1.27,1.27,0,0,0,1,.32l13.47-1a1.34,1.34,0,0,0,.91-.45,1.37,1.37,0,0,0,.32-1,2.68,2.68,0,1,1,5.35-.4,6.69,6.69,0,0,1-6.19,7.17l-13.46,1Z" style="fill:#fff"></path></g><path d="M293.15,262.15a2.68,2.68,0,0,1-2.32-4,5.35,5.35,0,0,0-1.95-7.29,2.68,2.68,0,1,1,2.68-4.65,10.7,10.7,0,0,1,3.92,14.62A2.7,2.7,0,0,1,293.15,262.15Z" style="fill:#263238"></path><g style="opacity:0.5"><path d="M293.15,262.15a2.68,2.68,0,0,1-2.32-4,5.35,5.35,0,0,0-1.95-7.29,2.68,2.68,0,1,1,2.68-4.65,10.7,10.7,0,0,1,3.92,14.62A2.7,2.7,0,0,1,293.15,262.15Z" style="fill:#fff"></path></g><path d="M119,296.72a10.64,10.64,0,0,1-7.1-2.69l-4.1-3.64a10.7,10.7,0,0,1-.9-15.11,2.68,2.68,0,1,1,4,3.56,5.34,5.34,0,0,0,.45,7.53l4.1,3.64a5.34,5.34,0,0,0,7.54-.45,2.68,2.68,0,1,1,4,3.57A10.66,10.66,0,0,1,119,296.72Z" style="fill:#263238"></path><path d="M147.74,310a10.68,10.68,0,0,1-3.54-.61L139,307.58a10.7,10.7,0,0,1-6.54-13.65,2.69,2.69,0,0,1,5.07,1.78,5.32,5.32,0,0,0,3.26,6.8l5.17,1.83a5.35,5.35,0,0,0,6.8-3.26,2.69,2.69,0,0,1,5.07,1.78A10.73,10.73,0,0,1,147.74,310Z" style="fill:#263238"></path><path d="M178.19,317.15a10.48,10.48,0,0,1-1.92-.18l-5.4-1a10.73,10.73,0,0,1-8.61-12.46,2.68,2.68,0,0,1,5.28,1,5.36,5.36,0,0,0,4.3,6.21l5.39,1a5.34,5.34,0,0,0,6.21-4.29,2.68,2.68,0,0,1,5.28,1A10.73,10.73,0,0,1,178.19,317.15Z" style="fill:#263238"></path><path d="M119,296.72a10.64,10.64,0,0,1-7.1-2.69l-4.1-3.64a10.7,10.7,0,0,1-.9-15.11,2.68,2.68,0,1,1,4,3.56,5.34,5.34,0,0,0,.45,7.53l4.1,3.64a5.34,5.34,0,0,0,7.54-.45,2.68,2.68,0,1,1,4,3.57A10.66,10.66,0,0,1,119,296.72Z" style="fill:#263238"></path><path d="M147.74,310a10.68,10.68,0,0,1-3.54-.61L139,307.58a10.7,10.7,0,0,1-6.54-13.65,2.69,2.69,0,0,1,5.07,1.78,5.32,5.32,0,0,0,3.26,6.8l5.17,1.83a5.35,5.35,0,0,0,6.8-3.26,2.69,2.69,0,0,1,5.07,1.78A10.73,10.73,0,0,1,147.74,310Z" style="fill:#263238"></path><path d="M178.19,317.15a10.48,10.48,0,0,1-1.92-.18l-5.4-1a10.73,10.73,0,0,1-8.61-12.46,2.68,2.68,0,0,1,5.28,1,5.36,5.36,0,0,0,4.3,6.21l5.39,1a5.34,5.34,0,0,0,6.21-4.29,2.68,2.68,0,0,1,5.28,1A10.73,10.73,0,0,1,178.19,317.15Z" style="fill:#263238"></path><g style="opacity:0.6000000000000001"><path d="M119,296.72a10.64,10.64,0,0,1-7.1-2.69l-4.1-3.64a10.7,10.7,0,0,1-.9-15.11,2.68,2.68,0,1,1,4,3.56,5.34,5.34,0,0,0,.45,7.53l4.1,3.64a5.34,5.34,0,0,0,7.54-.45,2.68,2.68,0,1,1,4,3.57A10.66,10.66,0,0,1,119,296.72Z" style="fill:#fff"></path><path d="M147.74,310a10.68,10.68,0,0,1-3.54-.61L139,307.58a10.7,10.7,0,0,1-6.54-13.65,2.69,2.69,0,0,1,5.07,1.78,5.32,5.32,0,0,0,3.26,6.8l5.17,1.83a5.35,5.35,0,0,0,6.8-3.26,2.69,2.69,0,0,1,5.07,1.78A10.73,10.73,0,0,1,147.74,310Z" style="fill:#fff"></path><path d="M178.19,317.15a10.48,10.48,0,0,1-1.92-.18l-5.4-1a10.73,10.73,0,0,1-8.61-12.46,2.68,2.68,0,0,1,5.28,1,5.36,5.36,0,0,0,4.3,6.21l5.39,1a5.34,5.34,0,0,0,6.21-4.29,2.68,2.68,0,0,1,5.28,1A10.73,10.73,0,0,1,178.19,317.15Z" style="fill:#fff"></path></g><path d="M112.81,283.78a2.69,2.69,0,0,1-1.37-5,1.31,1.31,0,0,0,.61-.81,1.29,1.29,0,0,0-.15-1L105,265.35a1.32,1.32,0,0,0-.81-.61,1.3,1.3,0,0,0-1,.14,2.68,2.68,0,1,1-2.73-4.62,6.7,6.7,0,0,1,9.17,2.35l6.87,11.62a6.68,6.68,0,0,1-2.35,9.17A2.62,2.62,0,0,1,112.81,283.78Z" style="fill:#263238"></path><path d="M139.89,300.55a2.75,2.75,0,0,1-1.37-.38,2.69,2.69,0,0,1-.93-3.68,1.34,1.34,0,0,0-.47-1.82l-11.61-6.9a1.32,1.32,0,0,0-1-.14,1.31,1.31,0,0,0-.81.61,2.69,2.69,0,0,1-4.62-2.74,6.7,6.7,0,0,1,9.18-2.34l11.61,6.9a6.69,6.69,0,0,1,2.33,9.17A2.67,2.67,0,0,1,139.89,300.55Z" style="fill:#263238"></path><path d="M170.74,308.69a2.5,2.5,0,0,1-.66-.09,2.67,2.67,0,0,1-1.94-3.26,1.36,1.36,0,0,0-.15-1,1.33,1.33,0,0,0-.81-.61l-13.1-3.31a1.32,1.32,0,0,0-1,.15,1.3,1.3,0,0,0-.61.81l-5.2-1.31a6.69,6.69,0,0,1,8.13-4.85l13.09,3.31a6.69,6.69,0,0,1,4.85,8.13A2.69,2.69,0,0,1,170.74,308.69Z" style="fill:#263238"></path><path d="M201.78,311.94h-.25a2.68,2.68,0,0,1-2.42-2.93,1.34,1.34,0,0,0-1.2-1.44l-13.45-1.25a1.36,1.36,0,0,0-1,.3,1.32,1.32,0,0,0-.47.89,2.69,2.69,0,1,1-5.35-.5,6.7,6.7,0,0,1,7.29-6l13.45,1.26a6.69,6.69,0,0,1,6,7.28A2.69,2.69,0,0,1,201.78,311.94Z" style="fill:#263238"></path><g style="opacity:0.5"><path d="M112.81,283.78a2.69,2.69,0,0,1-1.37-5,1.31,1.31,0,0,0,.61-.81,1.29,1.29,0,0,0-.15-1L105,265.35a1.32,1.32,0,0,0-.81-.61,1.3,1.3,0,0,0-1,.14,2.68,2.68,0,1,1-2.73-4.62,6.7,6.7,0,0,1,9.17,2.35l6.87,11.62a6.68,6.68,0,0,1-2.35,9.17A2.62,2.62,0,0,1,112.81,283.78Z" style="fill:#fff"></path><path d="M139.89,300.55a2.75,2.75,0,0,1-1.37-.38,2.69,2.69,0,0,1-.93-3.68,1.34,1.34,0,0,0-.47-1.82l-11.61-6.9a1.32,1.32,0,0,0-1-.14,1.31,1.31,0,0,0-.81.61,2.69,2.69,0,0,1-4.62-2.74,6.7,6.7,0,0,1,9.18-2.34l11.61,6.9a6.69,6.69,0,0,1,2.33,9.17A2.67,2.67,0,0,1,139.89,300.55Z" style="fill:#fff"></path><path d="M170.74,308.69a2.5,2.5,0,0,1-.66-.09,2.67,2.67,0,0,1-1.94-3.26,1.36,1.36,0,0,0-.15-1,1.33,1.33,0,0,0-.81-.61l-13.1-3.31a1.32,1.32,0,0,0-1,.15,1.3,1.3,0,0,0-.61.81l-5.2-1.31a6.69,6.69,0,0,1,8.13-4.85l13.09,3.31a6.69,6.69,0,0,1,4.85,8.13A2.69,2.69,0,0,1,170.74,308.69Z" style="fill:#fff"></path><path d="M201.78,311.94h-.25a2.68,2.68,0,0,1-2.42-2.93,1.34,1.34,0,0,0-1.2-1.44l-13.45-1.25a1.36,1.36,0,0,0-1,.3,1.32,1.32,0,0,0-.47.89,2.69,2.69,0,1,1-5.35-.5,6.7,6.7,0,0,1,7.29-6l13.45,1.26a6.69,6.69,0,0,1,6,7.28A2.69,2.69,0,0,1,201.78,311.94Z" style="fill:#fff"></path></g><path d="M103.22,269.54a2.69,2.69,0,0,1-1.78-.67,10.71,10.71,0,0,1-.9-15.12,2.69,2.69,0,0,1,4,3.57,5.33,5.33,0,0,0,.44,7.53,2.68,2.68,0,0,1-1.78,4.69Z" style="fill:#263238"></path><g style="opacity:0.6000000000000001"><path d="M103.22,269.54a2.69,2.69,0,0,1-1.78-.67,10.71,10.71,0,0,1-.9-15.12,2.69,2.69,0,0,1,4,3.57,5.33,5.33,0,0,0,.44,7.53,2.68,2.68,0,0,1-1.78,4.69Z" style="fill:#fff"></path></g></g></svg>
